<?xml version="1.0" standalone="no"?>
<!DOCTYPE svg PUBLIC "-//W3C//DTD SVG 20010904//EN"
 "http://www.w3.org/TR/2001/REC-SVG-20010904/DTD/svg10.dtd">
<svg version="1.0" xmlns="http://www.w3.org/2000/svg"
 width="246.000000pt" height="274.000000pt" viewBox="0 0 246.000000 274.000000"
 preserveAspectRatio="xMidYMid meet">

<g transform="translate(0.000000,274.000000) scale(0.100000,-0.100000)"
fill="#1fde02" stroke="none">
<path d="M760 2251 l-455 -297 0 -594 0 -594 457 -297 458 -298 457 298 458
298 0 593 0 593 -458 299 c-253 164 -460 298 -460 297 -1 0 -207 -135 -457
-298z m857 -110 l398 -259 0 -522 0 -522 -398 -259 -397 -258 -398 258 -397
259 0 522 0 523 395 258 c217 141 396 258 397 258 1 1 181 -116 400 -258z"/>
<path d="M1155 2270 c-33 -20 -125 -77 -205 -125 -80 -49 -196 -119 -257 -157
l-113 -69 0 -125 c0 -68 2 -124 4 -124 3 0 170 100 553 332 l83 50 32 -19 c18
-11 137 -83 263 -160 127 -77 241 -146 255 -154 14 -8 36 -22 49 -31 13 -10
28 -18 32 -18 5 0 9 56 9 124 l0 125 -112 69 c-194 119 -522 317 -527 319 -3
0 -33 -16 -66 -37z"/>
<path d="M1230 1660 l0 -131 61 -38 c33 -21 127 -78 209 -127 l149 -89 3 -127
3 -127 103 62 102 62 0 130 -1 130 -107 64 c-225 135 -468 283 -494 302 l-28
20 0 -131z"/>
<path d="M678 1588 l-98 -61 0 -191 0 -191 53 -31 c28 -17 135 -82 237 -144
102 -62 222 -135 267 -162 l82 -50 160 97 161 96 0 125 c0 68 -3 124 -6 124
-4 0 -73 -40 -155 -90 -82 -49 -153 -90 -159 -90 -6 0 -63 32 -128 71 -64 40
-159 97 -209 128 l-93 56 0 187 c0 104 -3 188 -7 187 -5 0 -52 -28 -105 -61z"/>
<path d="M590 921 l0 -119 83 -53 c45 -29 182 -119 304 -201 122 -81 230 -148
240 -148 23 0 452 282 452 298 1 15 -109 142 -123 142 -5 0 -29 -15 -55 -33
-25 -18 -72 -48 -104 -66 -32 -18 -81 -49 -109 -67 -28 -19 -56 -34 -62 -32
-18 5 -172 102 -402 256 -118 78 -217 142 -219 142 -3 0 -5 -54 -5 -119z"/>
</g>
</svg>
