<?xml version="1.0" standalone="no"?>
<!DOCTYPE svg PUBLIC "-//W3C//DTD SVG 20010904//EN"
 "http://www.w3.org/TR/2001/REC-SVG-20010904/DTD/svg10.dtd">
<svg version="1.0" xmlns="http://www.w3.org/2000/svg"
 width="280.000000pt" height="350.000000pt" viewBox="0 0 280.000000 350.000000"
 preserveAspectRatio="xMidYMid meet">

<g transform="translate(0.000000,350.000000) scale(0.100000,-0.100000)"
fill="#1fde02" stroke="none">
<path d="M830 2941 l-455 -297 0 -594 0 -594 457 -297 458 -298 457 298 458
297 0 594 0 594 -458 298 c-253 164 -460 298 -460 297 -1 0 -207 -135 -457
-298z m857 -110 l398 -259 0 -522 0 -522 -398 -259 -397 -258 -398 258 -397
259 0 522 0 522 395 258 c217 142 396 259 397 259 1 1 181 -116 400 -258z"/>
<path d="M1235 2976 c-27 -18 -168 -106 -312 -196 l-263 -163 0 -129 0 -130
38 23 c20 12 162 100 315 196 l278 173 267 -166 c147 -92 286 -180 310 -196
24 -15 46 -26 50 -24 4 2 6 60 4 129 l-3 125 -314 196 c-173 108 -315 196
-317 195 -2 0 -25 -15 -53 -33z"/>
<path d="M1300 2347 l0 -132 83 -53 c45 -28 138 -87 207 -130 l125 -78 5 -132
5 -132 103 66 102 66 0 129 0 129 -57 37 c-32 20 -174 110 -315 199 l-258 163
0 -132z"/>
<path d="M759 2277 l-96 -61 -7 -80 c-3 -45 -6 -133 -6 -197 l0 -116 195 -124
c107 -68 250 -159 318 -202 67 -42 128 -75 135 -72 10 4 101 61 275 171 l37
24 0 123 c0 68 -3 126 -6 129 -3 3 -73 -37 -155 -89 -83 -52 -157 -93 -164
-91 -7 2 -106 62 -219 133 l-206 130 -2 192 -3 192 -96 -62z"/>
<path d="M660 1611 l0 -119 83 -53 c45 -29 182 -119 304 -201 122 -81 230
-148 240 -148 23 0 452 282 452 298 1 15 -109 142 -123 142 -5 0 -29 -15 -55
-33 -25 -18 -72 -48 -104 -66 -32 -18 -81 -49 -109 -67 -28 -19 -56 -34 -62
-32 -18 5 -172 102 -402 256 -118 78 -217 142 -219 142 -3 0 -5 -54 -5 -119z"/>
</g>
</svg>
